<svg id="Layer_1" height="512" viewBox="0 0 128 128" width="512" xmlns="http://www.w3.org/2000/svg" data-name="Layer 1"><path d="m107.24 100.21v12.74h-90.32v-12.74a15.921 15.921 0 0 1 12.64-15.34l24.1-5.4h16.84l24.09 5.4a15.93 15.93 0 0 1 12.65 15.34z" fill="#f75138"/><path d="m111.078 112.947h-33.754v-37.221h25.504l8.25 8.25z" fill="#f2f2fc"/><path d="m36.5 49.956a4.752 4.752 0 0 0 4.752 4.752h3.311l-3.311-9.5a4.752 4.752 0 0 0 -4.752 4.748z" fill="#fedfd0"/><path d="m87.82 49.956a4.752 4.752 0 0 0 -4.752-4.756l-4.943 9.5h4.943a4.752 4.752 0 0 0 4.752-4.744z" fill="#fecec0"/><path d="m70.495 79.472-8.417 3.504-8.416-3.504 1-10.996h14.833z" fill="#fecec0"/><path d="m62.078 82.976-7.25 6.471-7.995-8.356 6.829-1.619z" fill="#f2f2fc"/><path d="m62.078 82.976 7.25 6.471 7.996-8.356-6.829-1.619z" fill="#e2dafa"/><path d="m37.33 100.61v12.34h-3.5v-12.34a1.75 1.75 0 1 1 3.5 0z" fill="#e70b23"/><path d="m62.078 82.976-5.081 4.535 5.081 5.686 5.082-5.686z" fill="#24d7de"/><path d="m67.203 112.947h-10.25l5.125-19.75z" fill="#24d7de"/><path d="m41.251 35.623h41.817a0 0 0 0 1 0 0v15.655a20.909 20.909 0 0 1 -20.908 20.908 20.909 20.909 0 0 1 -20.909-20.908v-15.655a0 0 0 0 1 0 0z" fill="#fedfd0"/><path d="m41.088 45.2s16.709-1.363 26.68-9.581c0 0 7.386 8.062 15.3 9.581 0 0 8.888-26.524-11.872-23.876 0 0-9.514-11.841-25.551-2.991-8.945 4.938-8.645 18.808-4.557 26.867z" fill="#fed943"/><path d="m111.078 83.976h-8.25v-8.25z" fill="#209ecc"/><g fill="#4e64db"><path d="m85.52 92.2h17.363a1.75 1.75 0 0 0 0-3.5h-17.363a1.75 1.75 0 0 0 0 3.5z"/><path d="m102.883 95.863h-17.363a1.75 1.75 0 0 0 0 3.5h17.363a1.75 1.75 0 0 0 0-3.5z"/><path d="m102.883 103.03h-17.363a1.75 1.75 0 0 0 0 3.5h17.363a1.75 1.75 0 0 0 0-3.5z"/></g></svg>